<mxfile compressed="false" type="device">
    <diagram id="OSPF" name="OSPF">
      <mxGraphModel arrows="1" connect="1" dx="1360" dy="864" fold="1" grid="1" gridSize="10" guides="1" math="0" page="1" pageHeight="1169" pageScale="1" pageWidth="827" shadow="1" tooltips="1">
        <root>
          <mxCell id="0" />   
          <mxCell id="1" parent="0" />
        <object id="r2" label="r2">
      <mxCell parent="1" style="rounded=1;whiteSpace=wrap;html=1;" vertex="1">
          <mxGeometry as="geometry" height="60" width="120" x="1088" y="256" />
      </mxCell>
    </object><object id="r4" label="r4">
      <mxCell parent="1" style="rounded=1;whiteSpace=wrap;html=1;" vertex="1">
          <mxGeometry as="geometry" height="60" width="120" x="523" y="354" />
      </mxCell>
    </object><object id="ff78635a2ec589c5140b5a8a6017404b" label="r2(10.10.24.2)(AreaID=0) == ESTABLISHED == r4(10.10.24.4)(AreaID=0">
      <mxCell edge="1" parent="1" source="r2" style="endArrow=none;" target="r4">
          <mxGeometry as="geometry" relative="1" />
      </mxCell>
    </object><object id="r3" label="r3">
      <mxCell parent="1" style="rounded=1;whiteSpace=wrap;html=1;" vertex="1">
          <mxGeometry as="geometry" height="60" width="120" x="817" y="321" />
      </mxCell>
    </object><object id="63241213df36a211f3646fe632d81e7d" label="r2(10.10.23.2)(AreaID=0) == ESTABLISHED == r3(10.10.23.3)(AreaID=0">
      <mxCell edge="1" parent="1" source="r2" style="endArrow=none;" target="r3">
          <mxGeometry as="geometry" relative="1" />
      </mxCell>
    </object><object id="r1" label="r1">
      <mxCell parent="1" style="rounded=1;whiteSpace=wrap;html=1;" vertex="1">
          <mxGeometry as="geometry" height="60" width="120" x="903" y="798" />
      </mxCell>
    </object><object id="717953d3e855d5bd8f582817eed7540b" label="r1(10.10.14.1)(AreaID=0) == ESTABLISHED == r4(10.10.14.4)(AreaID=0">
      <mxCell edge="1" parent="1" source="r1" style="endArrow=none;" target="r4">
          <mxGeometry as="geometry" relative="1" />
      </mxCell>
    </object><object id="b98ede9ecb790def3915fb3f42222c97" label="r3(10.10.34.3)(AreaID=0) == ESTABLISHED == r4(10.10.34.4)(AreaID=0">
      <mxCell edge="1" parent="1" source="r3" style="endArrow=none;" target="r4">
          <mxGeometry as="geometry" relative="1" />
      </mxCell>
    </object><object id="c9cdbcfbf567bdc86c72c41e028ee8d7" label="r1(10.10.13.1)(AreaID=0) == ESTABLISHED == r3(10.10.13.3)(AreaID=0">
      <mxCell edge="1" parent="1" source="r1" style="endArrow=none;" target="r3">
          <mxGeometry as="geometry" relative="1" />
      </mxCell>
    </object><object id="5985a21ffe4291125ae06f434b24ae00" label="r1(10.10.12.1)(AreaID=0) == ESTABLISHED == r2(10.10.12.2)(AreaID=0">
      <mxCell edge="1" parent="1" source="r1" style="endArrow=none;" target="r2">
          <mxGeometry as="geometry" relative="1" />
      </mxCell>
    </object></root>
      </mxGraphModel>
    </diagram><diagram id="BGP" name="BGP">
      <mxGraphModel arrows="1" connect="1" dx="1360" dy="864" fold="1" grid="1" gridSize="10" guides="1" math="0" page="1" pageHeight="1169" pageScale="1" pageWidth="827" shadow="1" tooltips="1">
        <root>
          <mxCell id="0" />   
          <mxCell id="1" parent="0" />
        <object id="r3 (20)" label="r3 (20)">
      <mxCell parent="1" style="rounded=1;whiteSpace=wrap;html=1;" vertex="1">
          <mxGeometry as="geometry" height="60" width="120" x="248" y="424" />
      </mxCell>
    </object><object id="None (10)" label="None (10)">
      <mxCell parent="1" style="rounded=1;whiteSpace=wrap;html=1;" vertex="1">
          <mxGeometry as="geometry" height="60" width="120" x="688" y="0" />
      </mxCell>
    </object><object id="6ec0683f6489b22cdc9687843368a3a3" label="r3 (20)(10.10.13.3) == NOT_COMPATIBLE == None (10)(10.10.13.1)">
      <mxCell edge="1" parent="1" source="r3 (20)" style="endArrow=none;" target="None (10)">
          <mxGeometry as="geometry" relative="1" />
      </mxCell>
    </object></root>
      </mxGraphModel>
    </diagram><diagram id="L3" name="L3">
      <mxGraphModel arrows="1" connect="1" dx="1360" dy="864" fold="1" grid="1" gridSize="10" guides="1" math="0" page="1" pageHeight="1169" pageScale="1" pageWidth="827" shadow="1" tooltips="1">
        <root>
          <mxCell id="0" />   
          <mxCell id="1" parent="0" />
        <object id="r4" label="r4">
      <mxCell parent="1" style="rounded=1;whiteSpace=wrap;html=1;" vertex="1">
          <mxGeometry as="geometry" height="60" width="120" x="930" y="611" />
      </mxCell>
    </object><object id="h2" label="h2">
      <mxCell parent="1" style="rounded=1;whiteSpace=wrap;html=1;" vertex="1">
          <mxGeometry as="geometry" height="60" width="120" x="631" y="0" />
      </mxCell>
    </object><object id="ea0d51588cd6e369eba53be48298bb6a" label="r4(['10.10.20.1']) == VLAN 0 == h2(['10.10.20.20'])">
      <mxCell edge="1" parent="1" source="r4" style="endArrow=none;" target="h2">
          <mxGeometry as="geometry" relative="1" />
      </mxCell>
    </object><object id="r1" label="r1">
      <mxCell parent="1" style="rounded=1;whiteSpace=wrap;html=1;" vertex="1">
          <mxGeometry as="geometry" height="60" width="120" x="247" y="446" />
      </mxCell>
    </object><object id="7a719ea23852175e9d022b64f5052588" label="r4(['10.10.14.4']) == VLAN 1 == r1(['10.10.14.1'])">
      <mxCell edge="1" parent="1" source="r4" style="endArrow=none;" target="r1">
          <mxGeometry as="geometry" relative="1" />
      </mxCell>
    </object><object id="r3" label="r3">
      <mxCell parent="1" style="rounded=1;whiteSpace=wrap;html=1;" vertex="1">
          <mxGeometry as="geometry" height="60" width="120" x="457" y="685" />
      </mxCell>
    </object><object id="h4" label="h4">
      <mxCell parent="1" style="rounded=1;whiteSpace=wrap;html=1;" vertex="1">
          <mxGeometry as="geometry" height="60" width="120" x="773" y="353" />
      </mxCell>
    </object><object id="81cb2773d952d538529416e37f6ab74c" label="r3(['10.10.30.1']) == VLAN 2 == h4(['10.10.30.10'])">
      <mxCell edge="1" parent="1" source="r3" style="endArrow=none;" target="h4">
          <mxGeometry as="geometry" relative="1" />
      </mxCell>
    </object><object id="r2" label="r2">
      <mxCell parent="1" style="rounded=1;whiteSpace=wrap;html=1;" vertex="1">
          <mxGeometry as="geometry" height="60" width="120" x="772" y="854" />
      </mxCell>
    </object><object id="da9d707803a145721d2e0d6ccd1ce5eb" label="r1(['10.10.12.1']) == VLAN 3 == r2(['10.10.12.2'])">
      <mxCell edge="1" parent="1" source="r1" style="endArrow=none;" target="r2">
          <mxGeometry as="geometry" relative="1" />
      </mxCell>
    </object><object id="4aedcf42be8e36f0b02b5d9003a523ae" label="r2(['10.10.12.2']) == VLAN 4 == r1(['10.10.12.1'])">
      <mxCell edge="1" parent="1" source="r2" style="endArrow=none;" target="r1">
          <mxGeometry as="geometry" relative="1" />
      </mxCell>
    </object><object id="h3" label="h3">
      <mxCell parent="1" style="rounded=1;whiteSpace=wrap;html=1;" vertex="1">
          <mxGeometry as="geometry" height="60" width="120" x="413" y="561" />
      </mxCell>
    </object><object id="35efa0ab8df3ca559ef6394fba2e1c03" label="h3(['10.10.40.10']) == VLAN 5 == r1(['10.10.40.1'])">
      <mxCell edge="1" parent="1" source="h3" style="endArrow=none;" target="r1">
          <mxGeometry as="geometry" relative="1" />
      </mxCell>
    </object><object id="99625ae2e7775337dc302253da4a0090" label="r3(['10.10.34.3']) == VLAN 6 == r4(['10.10.34.4'])">
      <mxCell edge="1" parent="1" source="r3" style="endArrow=none;" target="r4">
          <mxGeometry as="geometry" relative="1" />
      </mxCell>
    </object><object id="8a493154a772b42f8776b9bce3c8a9db" label="r4(['10.10.34.4']) == VLAN 7 == r3(['10.10.34.3'])">
      <mxCell edge="1" parent="1" source="r4" style="endArrow=none;" target="r3">
          <mxGeometry as="geometry" relative="1" />
      </mxCell>
    </object><object id="f891eaec8cd56038df056b9bcd3517a7" label="r2(['10.10.24.2']) == VLAN 8 == r4(['10.10.24.4'])">
      <mxCell edge="1" parent="1" source="r2" style="endArrow=none;" target="r4">
          <mxGeometry as="geometry" relative="1" />
      </mxCell>
    </object><object id="b5d9029463eee40e2d817bdd2cc9ec0e" label="r3(['10.10.13.3']) == VLAN 9 == r1(['10.10.13.1'])">
      <mxCell edge="1" parent="1" source="r3" style="endArrow=none;" target="r1">
          <mxGeometry as="geometry" relative="1" />
      </mxCell>
    </object><object id="a10c633eb149f028e326483b18b1b169" label="r1(['10.10.13.1']) == VLAN 10 == r3(['10.10.13.3'])">
      <mxCell edge="1" parent="1" source="r1" style="endArrow=none;" target="r3">
          <mxGeometry as="geometry" relative="1" />
      </mxCell>
    </object><object id="1e5879eb31da1b5b086d6c098b4c7ec3" label="r1(['10.10.40.1']) == VLAN 11 == h3(['10.10.40.10'])">
      <mxCell edge="1" parent="1" source="r1" style="endArrow=none;" target="h3">
          <mxGeometry as="geometry" relative="1" />
      </mxCell>
    </object><object id="d6398cd501adc2679702f09272c322ef" label="r3(['10.10.23.3']) == VLAN 12 == r2(['10.10.23.2'])">
      <mxCell edge="1" parent="1" source="r3" style="endArrow=none;" target="r2">
          <mxGeometry as="geometry" relative="1" />
      </mxCell>
    </object><object id="h1" label="h1">
      <mxCell parent="1" style="rounded=1;whiteSpace=wrap;html=1;" vertex="1">
          <mxGeometry as="geometry" height="60" width="120" x="392" y="98" />
      </mxCell>
    </object><object id="5d48797b7cc8ecb2838bbb9111ea2f19" label="h1(['10.10.10.10']) == VLAN 13 == r2(['10.10.10.1'])">
      <mxCell edge="1" parent="1" source="h1" style="endArrow=none;" target="r2">
          <mxGeometry as="geometry" relative="1" />
      </mxCell>
    </object><object id="f974da9896d7677e15155f88c3cbc475" label="r2(['10.10.23.2']) == VLAN 14 == r3(['10.10.23.3'])">
      <mxCell edge="1" parent="1" source="r2" style="endArrow=none;" target="r3">
          <mxGeometry as="geometry" relative="1" />
      </mxCell>
    </object><object id="fe09bad25d16f8c50ff28285f9fcc44d" label="r1(['10.10.14.1']) == VLAN 15 == r4(['10.10.14.4'])">
      <mxCell edge="1" parent="1" source="r1" style="endArrow=none;" target="r4">
          <mxGeometry as="geometry" relative="1" />
      </mxCell>
    </object><object id="fc006d10b5b82a710db60b49b8d4c1df" label="r2(['10.10.10.1']) == VLAN 16 == h1(['10.10.10.10'])">
      <mxCell edge="1" parent="1" source="r2" style="endArrow=none;" target="h1">
          <mxGeometry as="geometry" relative="1" />
      </mxCell>
    </object><object id="fff4babb46c01340e93eb51eb00ea45b" label="r4(['10.10.24.4']) == VLAN 17 == r2(['10.10.24.2'])">
      <mxCell edge="1" parent="1" source="r4" style="endArrow=none;" target="r2">
          <mxGeometry as="geometry" relative="1" />
      </mxCell>
    </object><object id="a1aae93018a0944d22e2e827bae43ab2" label="h2(['10.10.20.20']) == VLAN 18 == r4(['10.10.20.1'])">
      <mxCell edge="1" parent="1" source="h2" style="endArrow=none;" target="r4">
          <mxGeometry as="geometry" relative="1" />
      </mxCell>
    </object><object id="c506ed7a0eb2e0e2ff889316be3b7bca" label="h4(['10.10.30.10']) == VLAN 19 == r3(['10.10.30.1'])">
      <mxCell edge="1" parent="1" source="h4" style="endArrow=none;" target="r3">
          <mxGeometry as="geometry" relative="1" />
      </mxCell>
    </object></root>
      </mxGraphModel>
    </diagram></mxfile>